<mxfile host="65bd71144e">
    <diagram id="7NZpcmySkGFBmqZRC3Cg" name="第 1 页">
        <mxGraphModel dx="807" dy="516" grid="1" gridSize="10" guides="1" tooltips="1" connect="1" arrows="1" fold="1" page="1" pageScale="1" pageWidth="850" pageHeight="1100" math="0" shadow="0">
            <root>
                <mxCell id="0"/>
                <mxCell id="1" parent="0"/>
                <mxCell id="2" value="" style="rounded=0;whiteSpace=wrap;html=1;strokeColor=default;fontSize=8;fillColor=default;" parent="1" vertex="1">
                    <mxGeometry x="130" y="130" width="470" height="80" as="geometry"/>
                </mxCell>
                <mxCell id="3" value="S1" style="rounded=0;whiteSpace=wrap;html=1;strokeColor=#2D7600;fontSize=8;fillColor=#60a917;fontColor=#ffffff;" parent="1" vertex="1">
                    <mxGeometry x="190" y="140" width="10" height="20" as="geometry"/>
                </mxCell>
                <mxCell id="4" value="" style="rounded=0;whiteSpace=wrap;html=1;strokeColor=#006EAF;fontSize=8;fillColor=#1ba1e2;fontColor=#ffffff;" parent="1" vertex="1">
                    <mxGeometry x="300" y="140" width="90" height="20" as="geometry"/>
                </mxCell>
                <mxCell id="5" value="" style="rounded=0;whiteSpace=wrap;html=1;strokeColor=#006EAF;fontSize=8;fillColor=#1ba1e2;fontColor=#ffffff;" parent="1" vertex="1">
                    <mxGeometry x="400" y="140" width="90" height="20" as="geometry"/>
                </mxCell>
                <mxCell id="6" value="" style="rounded=0;whiteSpace=wrap;html=1;strokeColor=#006EAF;fontSize=8;fillColor=#1ba1e2;fontColor=#ffffff;" parent="1" vertex="1">
                    <mxGeometry x="200" y="140" width="90" height="20" as="geometry"/>
                </mxCell>
                <mxCell id="7" value="" style="rounded=0;whiteSpace=wrap;html=1;strokeColor=#006EAF;fontSize=8;fillColor=#1ba1e2;fontColor=#ffffff;" parent="1" vertex="1">
                    <mxGeometry x="500" y="140" width="90" height="20" as="geometry"/>
                </mxCell>
                <mxCell id="8" value="S2" style="rounded=0;whiteSpace=wrap;html=1;strokeColor=#005700;fontSize=8;fillColor=#008a00;fontColor=#ffffff;" parent="1" vertex="1">
                    <mxGeometry x="290" y="140" width="10" height="20" as="geometry"/>
                </mxCell>
                <mxCell id="9" value="S3" style="rounded=0;whiteSpace=wrap;html=1;strokeColor=#A50040;fontSize=8;fillColor=#d80073;fontColor=#ffffff;" parent="1" vertex="1">
                    <mxGeometry x="390" y="140" width="10" height="20" as="geometry"/>
                </mxCell>
                <mxCell id="10" value="S4" style="rounded=0;whiteSpace=wrap;html=1;strokeColor=#6F0000;fontSize=8;fillColor=#a20025;fontColor=#ffffff;" parent="1" vertex="1">
                    <mxGeometry x="490" y="140" width="10" height="20" as="geometry"/>
                </mxCell>
                <mxCell id="11" value="S1" style="rounded=0;whiteSpace=wrap;html=1;strokeColor=#2D7600;fontSize=8;fillColor=#60a917;fontColor=#ffffff;" parent="1" vertex="1">
                    <mxGeometry x="190" y="180" width="10" height="20" as="geometry"/>
                </mxCell>
                <mxCell id="12" value="" style="rounded=0;whiteSpace=wrap;html=1;strokeColor=#006EAF;fontSize=8;fillColor=#1ba1e2;fontColor=#ffffff;" parent="1" vertex="1">
                    <mxGeometry x="200" y="180" width="90" height="20" as="geometry"/>
                </mxCell>
                <mxCell id="13" value="S2" style="rounded=0;whiteSpace=wrap;html=1;strokeColor=#005700;fontSize=8;fillColor=#008a00;fontColor=#ffffff;" parent="1" vertex="1">
                    <mxGeometry x="290" y="180" width="10" height="20" as="geometry"/>
                </mxCell>
                <mxCell id="14" value="S3" style="rounded=0;whiteSpace=wrap;html=1;strokeColor=#A50040;fontSize=8;fillColor=#d80073;fontColor=#ffffff;" parent="1" vertex="1">
                    <mxGeometry x="300" y="180" width="10" height="20" as="geometry"/>
                </mxCell>
                <mxCell id="15" value="S4" style="rounded=0;whiteSpace=wrap;html=1;strokeColor=#6F0000;fontSize=8;fillColor=#a20025;fontColor=#ffffff;" parent="1" vertex="1">
                    <mxGeometry x="310" y="180" width="10" height="20" as="geometry"/>
                </mxCell>
                <mxCell id="17" value="pytorch" style="text;html=1;strokeColor=none;fillColor=none;align=center;verticalAlign=middle;whiteSpace=wrap;rounded=0;" parent="1" vertex="1">
                    <mxGeometry x="130" y="135" width="60" height="30" as="geometry"/>
                </mxCell>
                <mxCell id="18" value="Share" style="text;html=1;strokeColor=none;fillColor=none;align=center;verticalAlign=middle;whiteSpace=wrap;rounded=0;" parent="1" vertex="1">
                    <mxGeometry x="130" y="175" width="60" height="30" as="geometry"/>
                </mxCell>
                <mxCell id="19" value="" style="group" vertex="1" connectable="0" parent="1">
                    <mxGeometry x="190" y="422.31" width="162" height="62.81011327817373" as="geometry"/>
                </mxCell>
                <mxCell id="20" value="" style="shape=parallelogram;perimeter=parallelogramPerimeter;whiteSpace=wrap;html=1;fixedSize=1;shadow=0;glass=0;rounded=1;container=0;" vertex="1" parent="19">
                    <mxGeometry width="162" height="61" as="geometry"/>
                </mxCell>
                <mxCell id="21" value="&lt;font style=&quot;font-size: 15px;&quot;&gt;&lt;b&gt;...&lt;/b&gt;&lt;/font&gt;" style="text;strokeColor=none;fillColor=none;html=1;fontSize=10;fontStyle=0;verticalAlign=middle;align=center;rotation=0;container=0;" vertex="1" parent="19">
                    <mxGeometry x="71.1657662746461" width="41.99381254783835" height="10.17058077195781" as="geometry"/>
                </mxCell>
                <mxCell id="22" value="" style="ellipse;whiteSpace=wrap;html=1;aspect=fixed;fillColor=#008a00;fontColor=#ffffff;strokeColor=#005700;container=0;" vertex="1" parent="19">
                    <mxGeometry x="19.950643151623353" y="22.713026093687176" width="9.33522594332327" height="9.33522594332327" as="geometry"/>
                </mxCell>
                <mxCell id="23" value="" style="ellipse;whiteSpace=wrap;html=1;aspect=fixed;fillColor=#00CC00;fontColor=#ffffff;strokeColor=#00CC66;container=0;" vertex="1" parent="19">
                    <mxGeometry x="64.3765973428574" y="22.713026093687176" width="9.33522594332327" height="9.33522594332327" as="geometry"/>
                </mxCell>
                <mxCell id="24" value="" style="ellipse;whiteSpace=wrap;html=1;aspect=fixed;fillColor=#FFFFFF;fontColor=#ffffff;strokeColor=#000000;container=0;" vertex="1" parent="19">
                    <mxGeometry x="42.41894182305214" y="22.713026093687176" width="9.33522594332327" height="9.33522594332327" as="geometry"/>
                </mxCell>
                <mxCell id="25" value="" style="ellipse;whiteSpace=wrap;html=1;aspect=fixed;fillColor=#008A00;fontColor=#ffffff;strokeColor=#005700;container=0;" vertex="1" parent="19">
                    <mxGeometry x="99.6109748048707" y="22.713026093687176" width="9.33522594332327" height="9.33522594332327" as="geometry"/>
                </mxCell>
                <mxCell id="26" value="&lt;font style=&quot;font-size: 15px;&quot;&gt;&lt;b&gt;...&lt;/b&gt;&lt;/font&gt;" style="text;strokeColor=none;fillColor=none;html=1;fontSize=10;fontStyle=0;verticalAlign=middle;align=center;rotation=0;container=0;" vertex="1" parent="19">
                    <mxGeometry x="64.00512312302294" y="19.22487828845692" width="41.99381254783835" height="10.17058077195781" as="geometry"/>
                </mxCell>
                <mxCell id="27" value="&lt;font style=&quot;font-size: 15px;&quot;&gt;&lt;b&gt;...&lt;/b&gt;&lt;/font&gt;" style="text;strokeColor=none;fillColor=none;html=1;fontSize=10;fontStyle=0;verticalAlign=middle;align=center;rotation=105;container=0;" vertex="1" parent="19">
                    <mxGeometry x="82.85000000000014" y="34.42999999999995" width="41.99" height="12.87" as="geometry"/>
                </mxCell>
                <mxCell id="28" value="&lt;font style=&quot;font-size: 15px;&quot;&gt;&lt;b&gt;...&lt;/b&gt;&lt;/font&gt;" style="text;strokeColor=none;fillColor=none;html=1;fontSize=10;fontStyle=0;verticalAlign=middle;align=center;rotation=105;container=0;" vertex="1" parent="19">
                    <mxGeometry x="48.04928913315257" y="35.782852414154604" width="41.99381254783835" height="10.17058077195781" as="geometry"/>
                </mxCell>
                <mxCell id="29" value="&lt;font style=&quot;font-size: 15px;&quot;&gt;&lt;b&gt;...&lt;/b&gt;&lt;/font&gt;" style="text;strokeColor=none;fillColor=none;html=1;fontSize=10;fontStyle=0;verticalAlign=middle;align=center;rotation=105;container=0;" vertex="1" parent="19">
                    <mxGeometry x="26.090990461723777" y="35.782852414154604" width="41.99381254783835" height="10.17058077195781" as="geometry"/>
                </mxCell>
                <mxCell id="30" value="&lt;font style=&quot;font-size: 15px;&quot;&gt;&lt;b&gt;...&lt;/b&gt;&lt;/font&gt;" style="text;strokeColor=none;fillColor=none;html=1;fontSize=10;fontStyle=0;verticalAlign=middle;align=center;rotation=105;container=0;" vertex="1" parent="19">
                    <mxGeometry x="3.6226917902949936" y="35.782852414154604" width="41.99381254783835" height="10.17058077195781" as="geometry"/>
                </mxCell>
                <mxCell id="31" value="" style="ellipse;whiteSpace=wrap;html=1;aspect=fixed;fillColor=#66FF66;fontColor=#ffffff;strokeColor=#66FF66;container=0;" vertex="1" parent="19">
                    <mxGeometry x="141.86276886395603" y="3.488147805230369" width="9.33522594332327" height="9.33522594332327" as="geometry"/>
                </mxCell>
                <mxCell id="32" value="&lt;font style=&quot;font-size: 15px;&quot;&gt;&lt;b&gt;...&lt;/b&gt;&lt;/font&gt;" style="text;strokeColor=none;fillColor=none;html=1;fontSize=10;fontStyle=0;verticalAlign=middle;align=center;rotation=0;container=0;" vertex="1" parent="19">
                    <mxGeometry x="107.27820348535488" width="41.99381254783835" height="10.17058077195781" as="geometry"/>
                </mxCell>
                <mxCell id="33" value="" style="ellipse;whiteSpace=wrap;html=1;aspect=fixed;fillColor=#008a00;fontColor=#ffffff;strokeColor=#005700;container=0;" vertex="1" parent="19">
                    <mxGeometry x="135.72341201557924" y="22.713026093687176" width="9.33522594332327" height="9.33522594332327" as="geometry"/>
                </mxCell>
                <mxCell id="34" value="&lt;font style=&quot;font-size: 15px;&quot;&gt;&lt;b&gt;...&lt;/b&gt;&lt;/font&gt;" style="text;strokeColor=none;fillColor=none;html=1;fontSize=10;fontStyle=0;verticalAlign=middle;align=center;rotation=0;container=0;" vertex="1" parent="19">
                    <mxGeometry x="100.11756033373149" y="19.22487828845692" width="41.99381254783835" height="10.17058077195781" as="geometry"/>
                </mxCell>
                <mxCell id="35" value="&lt;font style=&quot;font-size: 15px;&quot;&gt;&lt;b&gt;...&lt;/b&gt;&lt;/font&gt;" style="text;strokeColor=none;fillColor=none;html=1;fontSize=10;fontStyle=0;verticalAlign=middle;align=center;rotation=105;container=0;" vertex="1" parent="19">
                    <mxGeometry x="119.40000000000009" y="34.42999999999995" width="41.99" height="12.87" as="geometry"/>
                </mxCell>
                <mxCell id="36" value="" style="ellipse;whiteSpace=wrap;html=1;aspect=fixed;fillColor=#008a00;fontColor=#ffffff;strokeColor=#005700;container=0;" vertex="1" parent="19">
                    <mxGeometry x="26.090000000000146" y="3.488147805230369" width="9.33522594332327" height="9.33522594332327" as="geometry"/>
                </mxCell>
                <mxCell id="37" value="" style="ellipse;whiteSpace=wrap;html=1;aspect=fixed;fillColor=#FFFFFF;fontColor=#ffffff;strokeColor=#000000;container=0;" vertex="1" parent="19">
                    <mxGeometry x="70.51595419123396" y="3.488147805230369" width="9.33522594332327" height="9.33522594332327" as="geometry"/>
                </mxCell>
                <mxCell id="38" value="" style="ellipse;whiteSpace=wrap;html=1;aspect=fixed;fillColor=#97D077;fontColor=#ffffff;strokeColor=#97D077;container=0;" vertex="1" parent="19">
                    <mxGeometry x="48.55829867142893" y="3.488147805230369" width="9.33522594332327" height="9.33522594332327" as="geometry"/>
                </mxCell>
                <mxCell id="39" value="" style="ellipse;whiteSpace=wrap;html=1;aspect=fixed;fillColor=#66FF66;fontColor=#ffffff;strokeColor=#66FF66;container=0;" vertex="1" parent="19">
                    <mxGeometry x="105.75033165324726" y="3.488147805230369" width="9.33522594332327" height="9.33522594332327" as="geometry"/>
                </mxCell>
                <mxCell id="40" value="" style="ellipse;whiteSpace=wrap;html=1;aspect=fixed;fillColor=#008a00;fontColor=#ffffff;strokeColor=#005700;container=0;" vertex="1" parent="19">
                    <mxGeometry x="10.611286303246743" y="49.44407526964096" width="9.33522594332327" height="9.33522594332327" as="geometry"/>
                </mxCell>
                <mxCell id="41" value="" style="ellipse;whiteSpace=wrap;html=1;aspect=fixed;fillColor=#008a00;fontColor=#ffffff;strokeColor=#005700;container=0;" vertex="1" parent="19">
                    <mxGeometry x="55.037240494480784" y="49.44407526964096" width="9.33522594332327" height="9.33522594332327" as="geometry"/>
                </mxCell>
                <mxCell id="42" value="" style="ellipse;whiteSpace=wrap;html=1;aspect=fixed;fillColor=#009900;fontColor=#ffffff;strokeColor=#009900;container=0;" vertex="1" parent="19">
                    <mxGeometry x="33.07958497467553" y="49.44407526964096" width="9.33522594332327" height="9.33522594332327" as="geometry"/>
                </mxCell>
                <mxCell id="43" value="" style="ellipse;whiteSpace=wrap;html=1;aspect=fixed;fillColor=#FFFFFF;fontColor=#ffffff;strokeColor=#000000;container=0;" vertex="1" parent="19">
                    <mxGeometry x="90.27161795649431" y="49.44407526964096" width="9.33522594332327" height="9.33522594332327" as="geometry"/>
                </mxCell>
                <mxCell id="44" value="&lt;font style=&quot;font-size: 15px;&quot;&gt;&lt;b&gt;...&lt;/b&gt;&lt;/font&gt;" style="text;strokeColor=none;fillColor=none;html=1;fontSize=10;fontStyle=0;verticalAlign=middle;align=center;rotation=0;container=0;" vertex="1" parent="19">
                    <mxGeometry x="55.68705257789293" y="45.955927464410706" width="41.99381254783835" height="10.17058077195781" as="geometry"/>
                </mxCell>
                <mxCell id="45" value="" style="ellipse;whiteSpace=wrap;html=1;aspect=fixed;fillColor=#FFFFFF;fontColor=#ffffff;strokeColor=#000000;container=0;" vertex="1" parent="19">
                    <mxGeometry x="126.38405516720286" y="49.44407526964096" width="9.33522594332327" height="9.33522594332327" as="geometry"/>
                </mxCell>
                <mxCell id="46" value="&lt;font style=&quot;font-size: 15px;&quot;&gt;&lt;b&gt;...&lt;/b&gt;&lt;/font&gt;" style="text;strokeColor=none;fillColor=none;html=1;fontSize=10;fontStyle=0;verticalAlign=middle;align=center;rotation=0;container=0;" vertex="1" parent="19">
                    <mxGeometry x="91.79948978860193" y="45.955927464410706" width="41.99381254783835" height="10.17058077195781" as="geometry"/>
                </mxCell>
                <mxCell id="47" value="" style="group" vertex="1" connectable="0" parent="1">
                    <mxGeometry x="190.14999999999986" y="402.81" width="162" height="62.81011327817373" as="geometry"/>
                </mxCell>
                <mxCell id="48" value="" style="shape=parallelogram;perimeter=parallelogramPerimeter;whiteSpace=wrap;html=1;fixedSize=1;shadow=0;glass=0;rounded=1;container=0;" vertex="1" parent="47">
                    <mxGeometry width="162" height="61" as="geometry"/>
                </mxCell>
                <mxCell id="49" value="&lt;font style=&quot;font-size: 15px;&quot;&gt;&lt;b&gt;...&lt;/b&gt;&lt;/font&gt;" style="text;strokeColor=none;fillColor=none;html=1;fontSize=10;fontStyle=0;verticalAlign=middle;align=center;rotation=0;container=0;" vertex="1" parent="47">
                    <mxGeometry x="71.1657662746461" width="41.99381254783835" height="10.17058077195781" as="geometry"/>
                </mxCell>
                <mxCell id="50" value="" style="ellipse;whiteSpace=wrap;html=1;aspect=fixed;fillColor=#008a00;fontColor=#ffffff;strokeColor=#005700;container=0;" vertex="1" parent="47">
                    <mxGeometry x="19.950643151623353" y="22.713026093687176" width="9.33522594332327" height="9.33522594332327" as="geometry"/>
                </mxCell>
                <mxCell id="51" value="" style="ellipse;whiteSpace=wrap;html=1;aspect=fixed;fillColor=#00CC00;fontColor=#ffffff;strokeColor=#00CC66;container=0;" vertex="1" parent="47">
                    <mxGeometry x="64.3765973428574" y="22.713026093687176" width="9.33522594332327" height="9.33522594332327" as="geometry"/>
                </mxCell>
                <mxCell id="52" value="" style="ellipse;whiteSpace=wrap;html=1;aspect=fixed;fillColor=#FFFFFF;fontColor=#ffffff;strokeColor=#000000;container=0;" vertex="1" parent="47">
                    <mxGeometry x="42.41894182305214" y="22.713026093687176" width="9.33522594332327" height="9.33522594332327" as="geometry"/>
                </mxCell>
                <mxCell id="53" value="" style="ellipse;whiteSpace=wrap;html=1;aspect=fixed;fillColor=#008A00;fontColor=#ffffff;strokeColor=#005700;container=0;" vertex="1" parent="47">
                    <mxGeometry x="99.6109748048707" y="22.713026093687176" width="9.33522594332327" height="9.33522594332327" as="geometry"/>
                </mxCell>
                <mxCell id="54" value="&lt;font style=&quot;font-size: 15px;&quot;&gt;&lt;b&gt;...&lt;/b&gt;&lt;/font&gt;" style="text;strokeColor=none;fillColor=none;html=1;fontSize=10;fontStyle=0;verticalAlign=middle;align=center;rotation=0;container=0;" vertex="1" parent="47">
                    <mxGeometry x="64.00512312302294" y="19.22487828845692" width="41.99381254783835" height="10.17058077195781" as="geometry"/>
                </mxCell>
                <mxCell id="55" value="&lt;font style=&quot;font-size: 15px;&quot;&gt;&lt;b&gt;...&lt;/b&gt;&lt;/font&gt;" style="text;strokeColor=none;fillColor=none;html=1;fontSize=10;fontStyle=0;verticalAlign=middle;align=center;rotation=105;container=0;" vertex="1" parent="47">
                    <mxGeometry x="82.85000000000014" y="34.42999999999995" width="41.99" height="12.87" as="geometry"/>
                </mxCell>
                <mxCell id="56" value="&lt;font style=&quot;font-size: 15px;&quot;&gt;&lt;b&gt;...&lt;/b&gt;&lt;/font&gt;" style="text;strokeColor=none;fillColor=none;html=1;fontSize=10;fontStyle=0;verticalAlign=middle;align=center;rotation=105;container=0;" vertex="1" parent="47">
                    <mxGeometry x="48.04928913315257" y="35.782852414154604" width="41.99381254783835" height="10.17058077195781" as="geometry"/>
                </mxCell>
                <mxCell id="57" value="&lt;font style=&quot;font-size: 15px;&quot;&gt;&lt;b&gt;...&lt;/b&gt;&lt;/font&gt;" style="text;strokeColor=none;fillColor=none;html=1;fontSize=10;fontStyle=0;verticalAlign=middle;align=center;rotation=105;container=0;" vertex="1" parent="47">
                    <mxGeometry x="26.090990461723777" y="35.782852414154604" width="41.99381254783835" height="10.17058077195781" as="geometry"/>
                </mxCell>
                <mxCell id="58" value="&lt;font style=&quot;font-size: 15px;&quot;&gt;&lt;b&gt;...&lt;/b&gt;&lt;/font&gt;" style="text;strokeColor=none;fillColor=none;html=1;fontSize=10;fontStyle=0;verticalAlign=middle;align=center;rotation=105;container=0;" vertex="1" parent="47">
                    <mxGeometry x="3.6226917902949936" y="35.782852414154604" width="41.99381254783835" height="10.17058077195781" as="geometry"/>
                </mxCell>
                <mxCell id="59" value="" style="ellipse;whiteSpace=wrap;html=1;aspect=fixed;fillColor=#66FF66;fontColor=#ffffff;strokeColor=#66FF66;container=0;" vertex="1" parent="47">
                    <mxGeometry x="141.86276886395603" y="3.488147805230369" width="9.33522594332327" height="9.33522594332327" as="geometry"/>
                </mxCell>
                <mxCell id="60" value="&lt;font style=&quot;font-size: 15px;&quot;&gt;&lt;b&gt;...&lt;/b&gt;&lt;/font&gt;" style="text;strokeColor=none;fillColor=none;html=1;fontSize=10;fontStyle=0;verticalAlign=middle;align=center;rotation=0;container=0;" vertex="1" parent="47">
                    <mxGeometry x="107.27820348535488" width="41.99381254783835" height="10.17058077195781" as="geometry"/>
                </mxCell>
                <mxCell id="61" value="" style="ellipse;whiteSpace=wrap;html=1;aspect=fixed;fillColor=#008a00;fontColor=#ffffff;strokeColor=#005700;container=0;" vertex="1" parent="47">
                    <mxGeometry x="135.72341201557924" y="22.713026093687176" width="9.33522594332327" height="9.33522594332327" as="geometry"/>
                </mxCell>
                <mxCell id="62" value="&lt;font style=&quot;font-size: 15px;&quot;&gt;&lt;b&gt;...&lt;/b&gt;&lt;/font&gt;" style="text;strokeColor=none;fillColor=none;html=1;fontSize=10;fontStyle=0;verticalAlign=middle;align=center;rotation=0;container=0;" vertex="1" parent="47">
                    <mxGeometry x="100.11756033373149" y="19.22487828845692" width="41.99381254783835" height="10.17058077195781" as="geometry"/>
                </mxCell>
                <mxCell id="63" value="&lt;font style=&quot;font-size: 15px;&quot;&gt;&lt;b&gt;...&lt;/b&gt;&lt;/font&gt;" style="text;strokeColor=none;fillColor=none;html=1;fontSize=10;fontStyle=0;verticalAlign=middle;align=center;rotation=105;container=0;" vertex="1" parent="47">
                    <mxGeometry x="119.40000000000009" y="34.42999999999995" width="41.99" height="12.87" as="geometry"/>
                </mxCell>
                <mxCell id="64" value="" style="ellipse;whiteSpace=wrap;html=1;aspect=fixed;fillColor=#008a00;fontColor=#ffffff;strokeColor=#005700;container=0;" vertex="1" parent="47">
                    <mxGeometry x="26.090000000000146" y="3.488147805230369" width="9.33522594332327" height="9.33522594332327" as="geometry"/>
                </mxCell>
                <mxCell id="65" value="" style="ellipse;whiteSpace=wrap;html=1;aspect=fixed;fillColor=#FFFFFF;fontColor=#ffffff;strokeColor=#000000;container=0;" vertex="1" parent="47">
                    <mxGeometry x="70.51595419123396" y="3.488147805230369" width="9.33522594332327" height="9.33522594332327" as="geometry"/>
                </mxCell>
                <mxCell id="66" value="" style="ellipse;whiteSpace=wrap;html=1;aspect=fixed;fillColor=#97D077;fontColor=#ffffff;strokeColor=#97D077;container=0;" vertex="1" parent="47">
                    <mxGeometry x="48.55829867142893" y="3.488147805230369" width="9.33522594332327" height="9.33522594332327" as="geometry"/>
                </mxCell>
                <mxCell id="67" value="" style="ellipse;whiteSpace=wrap;html=1;aspect=fixed;fillColor=#66FF66;fontColor=#ffffff;strokeColor=#66FF66;container=0;" vertex="1" parent="47">
                    <mxGeometry x="105.75033165324726" y="3.488147805230369" width="9.33522594332327" height="9.33522594332327" as="geometry"/>
                </mxCell>
                <mxCell id="68" value="" style="ellipse;whiteSpace=wrap;html=1;aspect=fixed;fillColor=#008a00;fontColor=#ffffff;strokeColor=#005700;container=0;" vertex="1" parent="47">
                    <mxGeometry x="10.611286303246743" y="49.44407526964096" width="9.33522594332327" height="9.33522594332327" as="geometry"/>
                </mxCell>
                <mxCell id="69" value="" style="ellipse;whiteSpace=wrap;html=1;aspect=fixed;fillColor=#008a00;fontColor=#ffffff;strokeColor=#005700;container=0;" vertex="1" parent="47">
                    <mxGeometry x="55.037240494480784" y="49.44407526964096" width="9.33522594332327" height="9.33522594332327" as="geometry"/>
                </mxCell>
                <mxCell id="70" value="" style="ellipse;whiteSpace=wrap;html=1;aspect=fixed;fillColor=#009900;fontColor=#ffffff;strokeColor=#009900;container=0;" vertex="1" parent="47">
                    <mxGeometry x="33.07958497467553" y="49.44407526964096" width="9.33522594332327" height="9.33522594332327" as="geometry"/>
                </mxCell>
                <mxCell id="71" value="" style="ellipse;whiteSpace=wrap;html=1;aspect=fixed;fillColor=#FFFFFF;fontColor=#ffffff;strokeColor=#000000;container=0;" vertex="1" parent="47">
                    <mxGeometry x="90.27161795649431" y="49.44407526964096" width="9.33522594332327" height="9.33522594332327" as="geometry"/>
                </mxCell>
                <mxCell id="72" value="&lt;font style=&quot;font-size: 15px;&quot;&gt;&lt;b&gt;...&lt;/b&gt;&lt;/font&gt;" style="text;strokeColor=none;fillColor=none;html=1;fontSize=10;fontStyle=0;verticalAlign=middle;align=center;rotation=0;container=0;" vertex="1" parent="47">
                    <mxGeometry x="55.68705257789293" y="45.955927464410706" width="41.99381254783835" height="10.17058077195781" as="geometry"/>
                </mxCell>
                <mxCell id="73" value="" style="ellipse;whiteSpace=wrap;html=1;aspect=fixed;fillColor=#FFFFFF;fontColor=#ffffff;strokeColor=#000000;container=0;" vertex="1" parent="47">
                    <mxGeometry x="126.38405516720286" y="49.44407526964096" width="9.33522594332327" height="9.33522594332327" as="geometry"/>
                </mxCell>
                <mxCell id="74" value="&lt;font style=&quot;font-size: 15px;&quot;&gt;&lt;b&gt;...&lt;/b&gt;&lt;/font&gt;" style="text;strokeColor=none;fillColor=none;html=1;fontSize=10;fontStyle=0;verticalAlign=middle;align=center;rotation=0;container=0;" vertex="1" parent="47">
                    <mxGeometry x="91.79948978860193" y="45.955927464410706" width="41.99381254783835" height="10.17058077195781" as="geometry"/>
                </mxCell>
                <mxCell id="75" value="" style="group" vertex="1" connectable="0" parent="1">
                    <mxGeometry x="190.14999999999986" y="382.31" width="162" height="62.81011327817373" as="geometry"/>
                </mxCell>
                <mxCell id="76" value="" style="shape=parallelogram;perimeter=parallelogramPerimeter;whiteSpace=wrap;html=1;fixedSize=1;shadow=0;glass=0;rounded=1;container=0;" vertex="1" parent="75">
                    <mxGeometry width="162" height="61" as="geometry"/>
                </mxCell>
                <mxCell id="77" value="&lt;font style=&quot;font-size: 15px;&quot;&gt;&lt;b&gt;...&lt;/b&gt;&lt;/font&gt;" style="text;strokeColor=none;fillColor=none;html=1;fontSize=10;fontStyle=0;verticalAlign=middle;align=center;rotation=0;container=0;" vertex="1" parent="75">
                    <mxGeometry x="71.1657662746461" width="41.99381254783835" height="10.17058077195781" as="geometry"/>
                </mxCell>
                <mxCell id="78" value="" style="ellipse;whiteSpace=wrap;html=1;aspect=fixed;fillColor=#008a00;fontColor=#ffffff;strokeColor=#005700;container=0;" vertex="1" parent="75">
                    <mxGeometry x="19.950643151623353" y="22.713026093687176" width="9.33522594332327" height="9.33522594332327" as="geometry"/>
                </mxCell>
                <mxCell id="79" value="" style="ellipse;whiteSpace=wrap;html=1;aspect=fixed;fillColor=#00CC00;fontColor=#ffffff;strokeColor=#00CC66;container=0;" vertex="1" parent="75">
                    <mxGeometry x="64.3765973428574" y="22.713026093687176" width="9.33522594332327" height="9.33522594332327" as="geometry"/>
                </mxCell>
                <mxCell id="80" value="" style="ellipse;whiteSpace=wrap;html=1;aspect=fixed;fillColor=#FFFFFF;fontColor=#ffffff;strokeColor=#000000;container=0;" vertex="1" parent="75">
                    <mxGeometry x="42.41894182305214" y="22.713026093687176" width="9.33522594332327" height="9.33522594332327" as="geometry"/>
                </mxCell>
                <mxCell id="81" value="" style="ellipse;whiteSpace=wrap;html=1;aspect=fixed;fillColor=#008A00;fontColor=#ffffff;strokeColor=#005700;container=0;" vertex="1" parent="75">
                    <mxGeometry x="99.6109748048707" y="22.713026093687176" width="9.33522594332327" height="9.33522594332327" as="geometry"/>
                </mxCell>
                <mxCell id="82" value="&lt;font style=&quot;font-size: 15px;&quot;&gt;&lt;b&gt;...&lt;/b&gt;&lt;/font&gt;" style="text;strokeColor=none;fillColor=none;html=1;fontSize=10;fontStyle=0;verticalAlign=middle;align=center;rotation=0;container=0;" vertex="1" parent="75">
                    <mxGeometry x="64.00512312302294" y="19.22487828845692" width="41.99381254783835" height="10.17058077195781" as="geometry"/>
                </mxCell>
                <mxCell id="83" value="&lt;font style=&quot;font-size: 15px;&quot;&gt;&lt;b&gt;...&lt;/b&gt;&lt;/font&gt;" style="text;strokeColor=none;fillColor=none;html=1;fontSize=10;fontStyle=0;verticalAlign=middle;align=center;rotation=105;container=0;" vertex="1" parent="75">
                    <mxGeometry x="82.85000000000014" y="34.42999999999995" width="41.99" height="12.87" as="geometry"/>
                </mxCell>
                <mxCell id="84" value="&lt;font style=&quot;font-size: 15px;&quot;&gt;&lt;b&gt;...&lt;/b&gt;&lt;/font&gt;" style="text;strokeColor=none;fillColor=none;html=1;fontSize=10;fontStyle=0;verticalAlign=middle;align=center;rotation=105;container=0;" vertex="1" parent="75">
                    <mxGeometry x="48.04928913315257" y="35.782852414154604" width="41.99381254783835" height="10.17058077195781" as="geometry"/>
                </mxCell>
                <mxCell id="85" value="&lt;font style=&quot;font-size: 15px;&quot;&gt;&lt;b&gt;...&lt;/b&gt;&lt;/font&gt;" style="text;strokeColor=none;fillColor=none;html=1;fontSize=10;fontStyle=0;verticalAlign=middle;align=center;rotation=105;container=0;" vertex="1" parent="75">
                    <mxGeometry x="26.090990461723777" y="35.782852414154604" width="41.99381254783835" height="10.17058077195781" as="geometry"/>
                </mxCell>
                <mxCell id="86" value="&lt;font style=&quot;font-size: 15px;&quot;&gt;&lt;b&gt;...&lt;/b&gt;&lt;/font&gt;" style="text;strokeColor=none;fillColor=none;html=1;fontSize=10;fontStyle=0;verticalAlign=middle;align=center;rotation=105;container=0;" vertex="1" parent="75">
                    <mxGeometry x="3.6226917902949936" y="35.782852414154604" width="41.99381254783835" height="10.17058077195781" as="geometry"/>
                </mxCell>
                <mxCell id="87" value="" style="ellipse;whiteSpace=wrap;html=1;aspect=fixed;fillColor=#66FF66;fontColor=#ffffff;strokeColor=#66FF66;container=0;" vertex="1" parent="75">
                    <mxGeometry x="141.86276886395603" y="3.488147805230369" width="9.33522594332327" height="9.33522594332327" as="geometry"/>
                </mxCell>
                <mxCell id="88" value="&lt;font style=&quot;font-size: 15px;&quot;&gt;&lt;b&gt;...&lt;/b&gt;&lt;/font&gt;" style="text;strokeColor=none;fillColor=none;html=1;fontSize=10;fontStyle=0;verticalAlign=middle;align=center;rotation=0;container=0;" vertex="1" parent="75">
                    <mxGeometry x="107.27820348535488" width="41.99381254783835" height="10.17058077195781" as="geometry"/>
                </mxCell>
                <mxCell id="89" value="" style="ellipse;whiteSpace=wrap;html=1;aspect=fixed;fillColor=#008a00;fontColor=#ffffff;strokeColor=#005700;container=0;" vertex="1" parent="75">
                    <mxGeometry x="135.72341201557924" y="22.713026093687176" width="9.33522594332327" height="9.33522594332327" as="geometry"/>
                </mxCell>
                <mxCell id="90" value="&lt;font style=&quot;font-size: 15px;&quot;&gt;&lt;b&gt;...&lt;/b&gt;&lt;/font&gt;" style="text;strokeColor=none;fillColor=none;html=1;fontSize=10;fontStyle=0;verticalAlign=middle;align=center;rotation=0;container=0;" vertex="1" parent="75">
                    <mxGeometry x="100.11756033373149" y="19.22487828845692" width="41.99381254783835" height="10.17058077195781" as="geometry"/>
                </mxCell>
                <mxCell id="91" value="&lt;font style=&quot;font-size: 15px;&quot;&gt;&lt;b&gt;...&lt;/b&gt;&lt;/font&gt;" style="text;strokeColor=none;fillColor=none;html=1;fontSize=10;fontStyle=0;verticalAlign=middle;align=center;rotation=105;container=0;" vertex="1" parent="75">
                    <mxGeometry x="119.40000000000009" y="34.42999999999995" width="41.99" height="12.87" as="geometry"/>
                </mxCell>
                <mxCell id="92" value="" style="ellipse;whiteSpace=wrap;html=1;aspect=fixed;fillColor=#008a00;fontColor=#ffffff;strokeColor=#005700;container=0;" vertex="1" parent="75">
                    <mxGeometry x="26.090000000000146" y="3.488147805230369" width="9.33522594332327" height="9.33522594332327" as="geometry"/>
                </mxCell>
                <mxCell id="93" value="" style="ellipse;whiteSpace=wrap;html=1;aspect=fixed;fillColor=#FFFFFF;fontColor=#ffffff;strokeColor=#000000;container=0;" vertex="1" parent="75">
                    <mxGeometry x="70.51595419123396" y="3.488147805230369" width="9.33522594332327" height="9.33522594332327" as="geometry"/>
                </mxCell>
                <mxCell id="94" value="" style="ellipse;whiteSpace=wrap;html=1;aspect=fixed;fillColor=#97D077;fontColor=#ffffff;strokeColor=#97D077;container=0;" vertex="1" parent="75">
                    <mxGeometry x="48.55829867142893" y="3.488147805230369" width="9.33522594332327" height="9.33522594332327" as="geometry"/>
                </mxCell>
                <mxCell id="95" value="" style="ellipse;whiteSpace=wrap;html=1;aspect=fixed;fillColor=#66FF66;fontColor=#ffffff;strokeColor=#66FF66;container=0;" vertex="1" parent="75">
                    <mxGeometry x="105.75033165324726" y="3.488147805230369" width="9.33522594332327" height="9.33522594332327" as="geometry"/>
                </mxCell>
                <mxCell id="96" value="" style="ellipse;whiteSpace=wrap;html=1;aspect=fixed;fillColor=#008a00;fontColor=#ffffff;strokeColor=#005700;container=0;" vertex="1" parent="75">
                    <mxGeometry x="10.611286303246743" y="49.44407526964096" width="9.33522594332327" height="9.33522594332327" as="geometry"/>
                </mxCell>
                <mxCell id="97" value="" style="ellipse;whiteSpace=wrap;html=1;aspect=fixed;fillColor=#008a00;fontColor=#ffffff;strokeColor=#005700;container=0;" vertex="1" parent="75">
                    <mxGeometry x="55.037240494480784" y="49.44407526964096" width="9.33522594332327" height="9.33522594332327" as="geometry"/>
                </mxCell>
                <mxCell id="98" value="" style="ellipse;whiteSpace=wrap;html=1;aspect=fixed;fillColor=#009900;fontColor=#ffffff;strokeColor=#009900;container=0;" vertex="1" parent="75">
                    <mxGeometry x="33.07958497467553" y="49.44407526964096" width="9.33522594332327" height="9.33522594332327" as="geometry"/>
                </mxCell>
                <mxCell id="99" value="" style="ellipse;whiteSpace=wrap;html=1;aspect=fixed;fillColor=#FFFFFF;fontColor=#ffffff;strokeColor=#000000;container=0;" vertex="1" parent="75">
                    <mxGeometry x="90.27161795649431" y="49.44407526964096" width="9.33522594332327" height="9.33522594332327" as="geometry"/>
                </mxCell>
                <mxCell id="100" value="&lt;font style=&quot;font-size: 15px;&quot;&gt;&lt;b&gt;...&lt;/b&gt;&lt;/font&gt;" style="text;strokeColor=none;fillColor=none;html=1;fontSize=10;fontStyle=0;verticalAlign=middle;align=center;rotation=0;container=0;" vertex="1" parent="75">
                    <mxGeometry x="55.68705257789293" y="45.955927464410706" width="41.99381254783835" height="10.17058077195781" as="geometry"/>
                </mxCell>
                <mxCell id="101" value="" style="ellipse;whiteSpace=wrap;html=1;aspect=fixed;fillColor=#FFFFFF;fontColor=#ffffff;strokeColor=#000000;container=0;" vertex="1" parent="75">
                    <mxGeometry x="126.38405516720286" y="49.44407526964096" width="9.33522594332327" height="9.33522594332327" as="geometry"/>
                </mxCell>
                <mxCell id="102" value="&lt;font style=&quot;font-size: 15px;&quot;&gt;&lt;b&gt;...&lt;/b&gt;&lt;/font&gt;" style="text;strokeColor=none;fillColor=none;html=1;fontSize=10;fontStyle=0;verticalAlign=middle;align=center;rotation=0;container=0;" vertex="1" parent="75">
                    <mxGeometry x="91.79948978860193" y="45.955927464410706" width="41.99381254783835" height="10.17058077195781" as="geometry"/>
                </mxCell>
                <mxCell id="103" value="" style="group" vertex="1" connectable="0" parent="1">
                    <mxGeometry x="382" y="300.00000000000006" width="162" height="62.81011327817373" as="geometry"/>
                </mxCell>
                <mxCell id="104" value="" style="shape=parallelogram;perimeter=parallelogramPerimeter;whiteSpace=wrap;html=1;fixedSize=1;shadow=0;glass=0;rounded=1;container=0;" vertex="1" parent="103">
                    <mxGeometry width="162" height="61" as="geometry"/>
                </mxCell>
                <mxCell id="105" value="&lt;font style=&quot;font-size: 15px;&quot;&gt;&lt;b&gt;...&lt;/b&gt;&lt;/font&gt;" style="text;strokeColor=none;fillColor=none;html=1;fontSize=10;fontStyle=0;verticalAlign=middle;align=center;rotation=0;container=0;" vertex="1" parent="103">
                    <mxGeometry x="71.1657662746461" width="41.99381254783835" height="10.17058077195781" as="geometry"/>
                </mxCell>
                <mxCell id="106" value="" style="ellipse;whiteSpace=wrap;html=1;aspect=fixed;fillColor=#008a00;fontColor=#ffffff;strokeColor=#005700;container=0;" vertex="1" parent="103">
                    <mxGeometry x="19.950643151623353" y="22.713026093687176" width="9.33522594332327" height="9.33522594332327" as="geometry"/>
                </mxCell>
                <mxCell id="107" value="" style="ellipse;whiteSpace=wrap;html=1;aspect=fixed;fillColor=#00CC00;fontColor=#ffffff;strokeColor=#00CC66;container=0;" vertex="1" parent="103">
                    <mxGeometry x="64.3765973428574" y="22.713026093687176" width="9.33522594332327" height="9.33522594332327" as="geometry"/>
                </mxCell>
                <mxCell id="108" value="" style="ellipse;whiteSpace=wrap;html=1;aspect=fixed;fillColor=#FFFFFF;fontColor=#ffffff;strokeColor=#000000;container=0;" vertex="1" parent="103">
                    <mxGeometry x="42.41894182305214" y="22.713026093687176" width="9.33522594332327" height="9.33522594332327" as="geometry"/>
                </mxCell>
                <mxCell id="109" value="" style="ellipse;whiteSpace=wrap;html=1;aspect=fixed;fillColor=#008A00;fontColor=#ffffff;strokeColor=#005700;container=0;" vertex="1" parent="103">
                    <mxGeometry x="99.6109748048707" y="22.713026093687176" width="9.33522594332327" height="9.33522594332327" as="geometry"/>
                </mxCell>
                <mxCell id="110" value="&lt;font style=&quot;font-size: 15px;&quot;&gt;&lt;b&gt;...&lt;/b&gt;&lt;/font&gt;" style="text;strokeColor=none;fillColor=none;html=1;fontSize=10;fontStyle=0;verticalAlign=middle;align=center;rotation=0;container=0;" vertex="1" parent="103">
                    <mxGeometry x="64.00512312302294" y="19.22487828845692" width="41.99381254783835" height="10.17058077195781" as="geometry"/>
                </mxCell>
                <mxCell id="111" value="&lt;font style=&quot;font-size: 15px;&quot;&gt;&lt;b&gt;...&lt;/b&gt;&lt;/font&gt;" style="text;strokeColor=none;fillColor=none;html=1;fontSize=10;fontStyle=0;verticalAlign=middle;align=center;rotation=105;container=0;" vertex="1" parent="103">
                    <mxGeometry x="82.85000000000014" y="34.42999999999995" width="41.99" height="12.87" as="geometry"/>
                </mxCell>
                <mxCell id="112" value="&lt;font style=&quot;font-size: 15px;&quot;&gt;&lt;b&gt;...&lt;/b&gt;&lt;/font&gt;" style="text;strokeColor=none;fillColor=none;html=1;fontSize=10;fontStyle=0;verticalAlign=middle;align=center;rotation=105;container=0;" vertex="1" parent="103">
                    <mxGeometry x="48.04928913315257" y="35.782852414154604" width="41.99381254783835" height="10.17058077195781" as="geometry"/>
                </mxCell>
                <mxCell id="113" value="&lt;font style=&quot;font-size: 15px;&quot;&gt;&lt;b&gt;...&lt;/b&gt;&lt;/font&gt;" style="text;strokeColor=none;fillColor=none;html=1;fontSize=10;fontStyle=0;verticalAlign=middle;align=center;rotation=105;container=0;" vertex="1" parent="103">
                    <mxGeometry x="26.090990461723777" y="35.782852414154604" width="41.99381254783835" height="10.17058077195781" as="geometry"/>
                </mxCell>
                <mxCell id="114" value="&lt;font style=&quot;font-size: 15px;&quot;&gt;&lt;b&gt;...&lt;/b&gt;&lt;/font&gt;" style="text;strokeColor=none;fillColor=none;html=1;fontSize=10;fontStyle=0;verticalAlign=middle;align=center;rotation=105;container=0;" vertex="1" parent="103">
                    <mxGeometry x="3.6226917902949936" y="35.782852414154604" width="41.99381254783835" height="10.17058077195781" as="geometry"/>
                </mxCell>
                <mxCell id="115" value="" style="ellipse;whiteSpace=wrap;html=1;aspect=fixed;fillColor=#66FF66;fontColor=#ffffff;strokeColor=#66FF66;container=0;" vertex="1" parent="103">
                    <mxGeometry x="141.86276886395603" y="3.488147805230369" width="9.33522594332327" height="9.33522594332327" as="geometry"/>
                </mxCell>
                <mxCell id="116" value="&lt;font style=&quot;font-size: 15px;&quot;&gt;&lt;b&gt;...&lt;/b&gt;&lt;/font&gt;" style="text;strokeColor=none;fillColor=none;html=1;fontSize=10;fontStyle=0;verticalAlign=middle;align=center;rotation=0;container=0;" vertex="1" parent="103">
                    <mxGeometry x="107.27820348535488" width="41.99381254783835" height="10.17058077195781" as="geometry"/>
                </mxCell>
                <mxCell id="117" value="" style="ellipse;whiteSpace=wrap;html=1;aspect=fixed;fillColor=#008a00;fontColor=#ffffff;strokeColor=#005700;container=0;" vertex="1" parent="103">
                    <mxGeometry x="135.72341201557924" y="22.713026093687176" width="9.33522594332327" height="9.33522594332327" as="geometry"/>
                </mxCell>
                <mxCell id="118" value="&lt;font style=&quot;font-size: 15px;&quot;&gt;&lt;b&gt;...&lt;/b&gt;&lt;/font&gt;" style="text;strokeColor=none;fillColor=none;html=1;fontSize=10;fontStyle=0;verticalAlign=middle;align=center;rotation=0;container=0;" vertex="1" parent="103">
                    <mxGeometry x="100.11756033373149" y="19.22487828845692" width="41.99381254783835" height="10.17058077195781" as="geometry"/>
                </mxCell>
                <mxCell id="119" value="&lt;font style=&quot;font-size: 15px;&quot;&gt;&lt;b&gt;...&lt;/b&gt;&lt;/font&gt;" style="text;strokeColor=none;fillColor=none;html=1;fontSize=10;fontStyle=0;verticalAlign=middle;align=center;rotation=105;container=0;" vertex="1" parent="103">
                    <mxGeometry x="119.40000000000009" y="34.42999999999995" width="41.99" height="12.87" as="geometry"/>
                </mxCell>
                <mxCell id="120" value="" style="ellipse;whiteSpace=wrap;html=1;aspect=fixed;fillColor=#008a00;fontColor=#ffffff;strokeColor=#005700;container=0;" vertex="1" parent="103">
                    <mxGeometry x="26.090000000000146" y="3.488147805230369" width="9.33522594332327" height="9.33522594332327" as="geometry"/>
                </mxCell>
                <mxCell id="121" value="" style="ellipse;whiteSpace=wrap;html=1;aspect=fixed;fillColor=#FFFFFF;fontColor=#ffffff;strokeColor=#000000;container=0;" vertex="1" parent="103">
                    <mxGeometry x="70.51595419123396" y="3.488147805230369" width="9.33522594332327" height="9.33522594332327" as="geometry"/>
                </mxCell>
                <mxCell id="122" value="" style="ellipse;whiteSpace=wrap;html=1;aspect=fixed;fillColor=#97D077;fontColor=#ffffff;strokeColor=#97D077;container=0;" vertex="1" parent="103">
                    <mxGeometry x="48.55829867142893" y="3.488147805230369" width="9.33522594332327" height="9.33522594332327" as="geometry"/>
                </mxCell>
                <mxCell id="123" value="" style="ellipse;whiteSpace=wrap;html=1;aspect=fixed;fillColor=#66FF66;fontColor=#ffffff;strokeColor=#66FF66;container=0;" vertex="1" parent="103">
                    <mxGeometry x="105.75033165324726" y="3.488147805230369" width="9.33522594332327" height="9.33522594332327" as="geometry"/>
                </mxCell>
                <mxCell id="124" value="" style="ellipse;whiteSpace=wrap;html=1;aspect=fixed;fillColor=#008a00;fontColor=#ffffff;strokeColor=#005700;container=0;" vertex="1" parent="103">
                    <mxGeometry x="10.611286303246743" y="49.44407526964096" width="9.33522594332327" height="9.33522594332327" as="geometry"/>
                </mxCell>
                <mxCell id="125" value="" style="ellipse;whiteSpace=wrap;html=1;aspect=fixed;fillColor=#008a00;fontColor=#ffffff;strokeColor=#005700;container=0;" vertex="1" parent="103">
                    <mxGeometry x="55.037240494480784" y="49.44407526964096" width="9.33522594332327" height="9.33522594332327" as="geometry"/>
                </mxCell>
                <mxCell id="126" value="" style="ellipse;whiteSpace=wrap;html=1;aspect=fixed;fillColor=#008a00;fontColor=#ffffff;strokeColor=#005700;container=0;" vertex="1" parent="103">
                    <mxGeometry x="33.07958497467553" y="49.44407526964096" width="9.33522594332327" height="9.33522594332327" as="geometry"/>
                </mxCell>
                <mxCell id="127" value="" style="ellipse;whiteSpace=wrap;html=1;aspect=fixed;fillColor=#008a00;fontColor=#ffffff;strokeColor=#005700;container=0;" vertex="1" parent="103">
                    <mxGeometry x="90.27161795649431" y="49.44407526964096" width="9.33522594332327" height="9.33522594332327" as="geometry"/>
                </mxCell>
                <mxCell id="128" value="&lt;font style=&quot;font-size: 15px;&quot;&gt;&lt;b&gt;...&lt;/b&gt;&lt;/font&gt;" style="text;strokeColor=none;fillColor=none;html=1;fontSize=10;fontStyle=0;verticalAlign=middle;align=center;rotation=0;container=0;" vertex="1" parent="103">
                    <mxGeometry x="55.68705257789293" y="45.955927464410706" width="41.99381254783835" height="10.17058077195781" as="geometry"/>
                </mxCell>
                <mxCell id="129" value="" style="ellipse;whiteSpace=wrap;html=1;aspect=fixed;fillColor=#008a00;fontColor=#ffffff;strokeColor=#005700;container=0;" vertex="1" parent="103">
                    <mxGeometry x="126.38405516720286" y="49.44407526964096" width="9.33522594332327" height="9.33522594332327" as="geometry"/>
                </mxCell>
                <mxCell id="130" value="&lt;font style=&quot;font-size: 15px;&quot;&gt;&lt;b&gt;...&lt;/b&gt;&lt;/font&gt;" style="text;strokeColor=none;fillColor=none;html=1;fontSize=10;fontStyle=0;verticalAlign=middle;align=center;rotation=0;container=0;" vertex="1" parent="103">
                    <mxGeometry x="91.79948978860193" y="45.955927464410706" width="41.99381254783835" height="10.17058077195781" as="geometry"/>
                </mxCell>
                <mxCell id="131" value="" style="group" vertex="1" connectable="0" parent="1">
                    <mxGeometry x="381.9999999999998" y="280.50000000000006" width="162" height="62.81011327817373" as="geometry"/>
                </mxCell>
                <mxCell id="132" value="" style="shape=parallelogram;perimeter=parallelogramPerimeter;whiteSpace=wrap;html=1;fixedSize=1;shadow=0;glass=0;rounded=1;container=0;" vertex="1" parent="131">
                    <mxGeometry width="162" height="61" as="geometry"/>
                </mxCell>
                <mxCell id="133" value="&lt;font style=&quot;font-size: 15px;&quot;&gt;&lt;b&gt;...&lt;/b&gt;&lt;/font&gt;" style="text;strokeColor=none;fillColor=none;html=1;fontSize=10;fontStyle=0;verticalAlign=middle;align=center;rotation=0;container=0;" vertex="1" parent="131">
                    <mxGeometry x="71.1657662746461" width="41.99381254783835" height="10.17058077195781" as="geometry"/>
                </mxCell>
                <mxCell id="134" value="" style="ellipse;whiteSpace=wrap;html=1;aspect=fixed;fillColor=#008a00;fontColor=#ffffff;strokeColor=#005700;container=0;" vertex="1" parent="131">
                    <mxGeometry x="19.950643151623353" y="22.713026093687176" width="9.33522594332327" height="9.33522594332327" as="geometry"/>
                </mxCell>
                <mxCell id="135" value="" style="ellipse;whiteSpace=wrap;html=1;aspect=fixed;fillColor=#00CC00;fontColor=#ffffff;strokeColor=#00CC66;container=0;" vertex="1" parent="131">
                    <mxGeometry x="64.3765973428574" y="22.713026093687176" width="9.33522594332327" height="9.33522594332327" as="geometry"/>
                </mxCell>
                <mxCell id="136" value="" style="ellipse;whiteSpace=wrap;html=1;aspect=fixed;fillColor=#FFFFFF;fontColor=#ffffff;strokeColor=#000000;container=0;" vertex="1" parent="131">
                    <mxGeometry x="42.41894182305214" y="22.713026093687176" width="9.33522594332327" height="9.33522594332327" as="geometry"/>
                </mxCell>
                <mxCell id="137" value="" style="ellipse;whiteSpace=wrap;html=1;aspect=fixed;fillColor=#008A00;fontColor=#ffffff;strokeColor=#005700;container=0;" vertex="1" parent="131">
                    <mxGeometry x="99.6109748048707" y="22.713026093687176" width="9.33522594332327" height="9.33522594332327" as="geometry"/>
                </mxCell>
                <mxCell id="138" value="&lt;font style=&quot;font-size: 15px;&quot;&gt;&lt;b&gt;...&lt;/b&gt;&lt;/font&gt;" style="text;strokeColor=none;fillColor=none;html=1;fontSize=10;fontStyle=0;verticalAlign=middle;align=center;rotation=0;container=0;" vertex="1" parent="131">
                    <mxGeometry x="64.00512312302294" y="19.22487828845692" width="41.99381254783835" height="10.17058077195781" as="geometry"/>
                </mxCell>
                <mxCell id="139" value="&lt;font style=&quot;font-size: 15px;&quot;&gt;&lt;b&gt;...&lt;/b&gt;&lt;/font&gt;" style="text;strokeColor=none;fillColor=none;html=1;fontSize=10;fontStyle=0;verticalAlign=middle;align=center;rotation=105;container=0;" vertex="1" parent="131">
                    <mxGeometry x="82.85000000000014" y="34.42999999999995" width="41.99" height="12.87" as="geometry"/>
                </mxCell>
                <mxCell id="140" value="&lt;font style=&quot;font-size: 15px;&quot;&gt;&lt;b&gt;...&lt;/b&gt;&lt;/font&gt;" style="text;strokeColor=none;fillColor=none;html=1;fontSize=10;fontStyle=0;verticalAlign=middle;align=center;rotation=105;container=0;" vertex="1" parent="131">
                    <mxGeometry x="48.04928913315257" y="35.782852414154604" width="41.99381254783835" height="10.17058077195781" as="geometry"/>
                </mxCell>
                <mxCell id="141" value="&lt;font style=&quot;font-size: 15px;&quot;&gt;&lt;b&gt;...&lt;/b&gt;&lt;/font&gt;" style="text;strokeColor=none;fillColor=none;html=1;fontSize=10;fontStyle=0;verticalAlign=middle;align=center;rotation=105;container=0;" vertex="1" parent="131">
                    <mxGeometry x="26.090990461723777" y="35.782852414154604" width="41.99381254783835" height="10.17058077195781" as="geometry"/>
                </mxCell>
                <mxCell id="142" value="&lt;font style=&quot;font-size: 15px;&quot;&gt;&lt;b&gt;...&lt;/b&gt;&lt;/font&gt;" style="text;strokeColor=none;fillColor=none;html=1;fontSize=10;fontStyle=0;verticalAlign=middle;align=center;rotation=105;container=0;" vertex="1" parent="131">
                    <mxGeometry x="3.6226917902949936" y="35.782852414154604" width="41.99381254783835" height="10.17058077195781" as="geometry"/>
                </mxCell>
                <mxCell id="143" value="" style="ellipse;whiteSpace=wrap;html=1;aspect=fixed;fillColor=#66FF66;fontColor=#ffffff;strokeColor=#66FF66;container=0;" vertex="1" parent="131">
                    <mxGeometry x="141.86276886395603" y="3.488147805230369" width="9.33522594332327" height="9.33522594332327" as="geometry"/>
                </mxCell>
                <mxCell id="144" value="&lt;font style=&quot;font-size: 15px;&quot;&gt;&lt;b&gt;...&lt;/b&gt;&lt;/font&gt;" style="text;strokeColor=none;fillColor=none;html=1;fontSize=10;fontStyle=0;verticalAlign=middle;align=center;rotation=0;container=0;" vertex="1" parent="131">
                    <mxGeometry x="107.27820348535488" width="41.99381254783835" height="10.17058077195781" as="geometry"/>
                </mxCell>
                <mxCell id="145" value="" style="ellipse;whiteSpace=wrap;html=1;aspect=fixed;fillColor=#008a00;fontColor=#ffffff;strokeColor=#005700;container=0;" vertex="1" parent="131">
                    <mxGeometry x="135.72341201557924" y="22.713026093687176" width="9.33522594332327" height="9.33522594332327" as="geometry"/>
                </mxCell>
                <mxCell id="146" value="&lt;font style=&quot;font-size: 15px;&quot;&gt;&lt;b&gt;...&lt;/b&gt;&lt;/font&gt;" style="text;strokeColor=none;fillColor=none;html=1;fontSize=10;fontStyle=0;verticalAlign=middle;align=center;rotation=0;container=0;" vertex="1" parent="131">
                    <mxGeometry x="100.11756033373149" y="19.22487828845692" width="41.99381254783835" height="10.17058077195781" as="geometry"/>
                </mxCell>
                <mxCell id="147" value="&lt;font style=&quot;font-size: 15px;&quot;&gt;&lt;b&gt;...&lt;/b&gt;&lt;/font&gt;" style="text;strokeColor=none;fillColor=none;html=1;fontSize=10;fontStyle=0;verticalAlign=middle;align=center;rotation=105;container=0;" vertex="1" parent="131">
                    <mxGeometry x="119.40000000000009" y="34.42999999999995" width="41.99" height="12.87" as="geometry"/>
                </mxCell>
                <mxCell id="148" value="" style="ellipse;whiteSpace=wrap;html=1;aspect=fixed;fillColor=#008a00;fontColor=#ffffff;strokeColor=#005700;container=0;" vertex="1" parent="131">
                    <mxGeometry x="26.090000000000146" y="3.488147805230369" width="9.33522594332327" height="9.33522594332327" as="geometry"/>
                </mxCell>
                <mxCell id="149" value="" style="ellipse;whiteSpace=wrap;html=1;aspect=fixed;fillColor=#FFFFFF;fontColor=#ffffff;strokeColor=#000000;container=0;" vertex="1" parent="131">
                    <mxGeometry x="70.51595419123396" y="3.488147805230369" width="9.33522594332327" height="9.33522594332327" as="geometry"/>
                </mxCell>
                <mxCell id="150" value="" style="ellipse;whiteSpace=wrap;html=1;aspect=fixed;fillColor=#97D077;fontColor=#ffffff;strokeColor=#97D077;container=0;" vertex="1" parent="131">
                    <mxGeometry x="48.55829867142893" y="3.488147805230369" width="9.33522594332327" height="9.33522594332327" as="geometry"/>
                </mxCell>
                <mxCell id="151" value="" style="ellipse;whiteSpace=wrap;html=1;aspect=fixed;fillColor=#66FF66;fontColor=#ffffff;strokeColor=#66FF66;container=0;" vertex="1" parent="131">
                    <mxGeometry x="105.75033165324726" y="3.488147805230369" width="9.33522594332327" height="9.33522594332327" as="geometry"/>
                </mxCell>
                <mxCell id="152" value="" style="ellipse;whiteSpace=wrap;html=1;aspect=fixed;fillColor=#008a00;fontColor=#ffffff;strokeColor=#005700;container=0;" vertex="1" parent="131">
                    <mxGeometry x="10.611286303246743" y="49.44407526964096" width="9.33522594332327" height="9.33522594332327" as="geometry"/>
                </mxCell>
                <mxCell id="153" value="" style="ellipse;whiteSpace=wrap;html=1;aspect=fixed;fillColor=#008a00;fontColor=#ffffff;strokeColor=#005700;container=0;" vertex="1" parent="131">
                    <mxGeometry x="55.037240494480784" y="49.44407526964096" width="9.33522594332327" height="9.33522594332327" as="geometry"/>
                </mxCell>
                <mxCell id="154" value="" style="ellipse;whiteSpace=wrap;html=1;aspect=fixed;fillColor=#008a00;fontColor=#ffffff;strokeColor=#005700;container=0;" vertex="1" parent="131">
                    <mxGeometry x="33.07958497467553" y="49.44407526964096" width="9.33522594332327" height="9.33522594332327" as="geometry"/>
                </mxCell>
                <mxCell id="155" value="" style="ellipse;whiteSpace=wrap;html=1;aspect=fixed;fillColor=#008a00;fontColor=#ffffff;strokeColor=#005700;container=0;" vertex="1" parent="131">
                    <mxGeometry x="90.27161795649431" y="49.44407526964096" width="9.33522594332327" height="9.33522594332327" as="geometry"/>
                </mxCell>
                <mxCell id="156" value="&lt;font style=&quot;font-size: 15px;&quot;&gt;&lt;b&gt;...&lt;/b&gt;&lt;/font&gt;" style="text;strokeColor=none;fillColor=none;html=1;fontSize=10;fontStyle=0;verticalAlign=middle;align=center;rotation=0;container=0;" vertex="1" parent="131">
                    <mxGeometry x="55.68705257789293" y="45.955927464410706" width="41.99381254783835" height="10.17058077195781" as="geometry"/>
                </mxCell>
                <mxCell id="157" value="" style="ellipse;whiteSpace=wrap;html=1;aspect=fixed;fillColor=#008a00;fontColor=#ffffff;strokeColor=#005700;container=0;" vertex="1" parent="131">
                    <mxGeometry x="126.38405516720286" y="49.44407526964096" width="9.33522594332327" height="9.33522594332327" as="geometry"/>
                </mxCell>
                <mxCell id="158" value="&lt;font style=&quot;font-size: 15px;&quot;&gt;&lt;b&gt;...&lt;/b&gt;&lt;/font&gt;" style="text;strokeColor=none;fillColor=none;html=1;fontSize=10;fontStyle=0;verticalAlign=middle;align=center;rotation=0;container=0;" vertex="1" parent="131">
                    <mxGeometry x="91.79948978860193" y="45.955927464410706" width="41.99381254783835" height="10.17058077195781" as="geometry"/>
                </mxCell>
                <mxCell id="159" value="" style="group" vertex="1" connectable="0" parent="1">
                    <mxGeometry x="381.9999999999998" y="260.00000000000006" width="162" height="62.81011327817373" as="geometry"/>
                </mxCell>
                <mxCell id="160" value="" style="shape=parallelogram;perimeter=parallelogramPerimeter;whiteSpace=wrap;html=1;fixedSize=1;shadow=0;glass=0;rounded=1;container=0;" vertex="1" parent="159">
                    <mxGeometry width="162" height="61" as="geometry"/>
                </mxCell>
                <mxCell id="161" value="&lt;font style=&quot;font-size: 15px;&quot;&gt;&lt;b&gt;...&lt;/b&gt;&lt;/font&gt;" style="text;strokeColor=none;fillColor=none;html=1;fontSize=10;fontStyle=0;verticalAlign=middle;align=center;rotation=0;container=0;" vertex="1" parent="159">
                    <mxGeometry x="71.1657662746461" width="41.99381254783835" height="10.17058077195781" as="geometry"/>
                </mxCell>
                <mxCell id="162" value="" style="ellipse;whiteSpace=wrap;html=1;aspect=fixed;fillColor=#008a00;fontColor=#ffffff;strokeColor=#005700;container=0;" vertex="1" parent="159">
                    <mxGeometry x="19.950643151623353" y="22.713026093687176" width="9.33522594332327" height="9.33522594332327" as="geometry"/>
                </mxCell>
                <mxCell id="163" value="" style="ellipse;whiteSpace=wrap;html=1;aspect=fixed;fillColor=#008a00;fontColor=#ffffff;strokeColor=#005700;container=0;" vertex="1" parent="159">
                    <mxGeometry x="64.3765973428574" y="22.713026093687176" width="9.33522594332327" height="9.33522594332327" as="geometry"/>
                </mxCell>
                <mxCell id="164" value="" style="ellipse;whiteSpace=wrap;html=1;aspect=fixed;fillColor=#008a00;fontColor=#ffffff;strokeColor=#005700;container=0;" vertex="1" parent="159">
                    <mxGeometry x="42.41894182305214" y="22.713026093687176" width="9.33522594332327" height="9.33522594332327" as="geometry"/>
                </mxCell>
                <mxCell id="165" value="" style="ellipse;whiteSpace=wrap;html=1;aspect=fixed;fillColor=#008A00;fontColor=#ffffff;strokeColor=#005700;container=0;" vertex="1" parent="159">
                    <mxGeometry x="99.6109748048707" y="22.713026093687176" width="9.33522594332327" height="9.33522594332327" as="geometry"/>
                </mxCell>
                <mxCell id="166" value="&lt;font style=&quot;font-size: 15px;&quot;&gt;&lt;b&gt;...&lt;/b&gt;&lt;/font&gt;" style="text;strokeColor=none;fillColor=none;html=1;fontSize=10;fontStyle=0;verticalAlign=middle;align=center;rotation=0;container=0;" vertex="1" parent="159">
                    <mxGeometry x="64.00512312302294" y="19.22487828845692" width="41.99381254783835" height="10.17058077195781" as="geometry"/>
                </mxCell>
                <mxCell id="167" value="&lt;font style=&quot;font-size: 15px;&quot;&gt;&lt;b&gt;...&lt;/b&gt;&lt;/font&gt;" style="text;strokeColor=none;fillColor=none;html=1;fontSize=10;fontStyle=0;verticalAlign=middle;align=center;rotation=105;container=0;" vertex="1" parent="159">
                    <mxGeometry x="82.85000000000014" y="34.42999999999995" width="41.99" height="12.87" as="geometry"/>
                </mxCell>
                <mxCell id="168" value="&lt;font style=&quot;font-size: 15px;&quot;&gt;&lt;b&gt;...&lt;/b&gt;&lt;/font&gt;" style="text;strokeColor=none;fillColor=none;html=1;fontSize=10;fontStyle=0;verticalAlign=middle;align=center;rotation=105;container=0;" vertex="1" parent="159">
                    <mxGeometry x="48.56" y="34.43" width="41.99" height="12.87" as="geometry"/>
                </mxCell>
                <mxCell id="169" value="&lt;font style=&quot;font-size: 15px;&quot;&gt;&lt;b&gt;...&lt;/b&gt;&lt;/font&gt;" style="text;strokeColor=none;fillColor=none;html=1;fontSize=10;fontStyle=0;verticalAlign=middle;align=center;rotation=105;container=0;" vertex="1" parent="159">
                    <mxGeometry x="26.090990461723777" y="35.782852414154604" width="41.99381254783835" height="10.17058077195781" as="geometry"/>
                </mxCell>
                <mxCell id="170" value="&lt;font style=&quot;font-size: 15px;&quot;&gt;&lt;b&gt;...&lt;/b&gt;&lt;/font&gt;" style="text;strokeColor=none;fillColor=none;html=1;fontSize=10;fontStyle=0;verticalAlign=middle;align=center;rotation=105;container=0;" vertex="1" parent="159">
                    <mxGeometry x="3.6226917902949936" y="35.782852414154604" width="41.99381254783835" height="10.17058077195781" as="geometry"/>
                </mxCell>
                <mxCell id="171" value="" style="ellipse;whiteSpace=wrap;html=1;aspect=fixed;fillColor=#008a00;fontColor=#ffffff;strokeColor=#005700;container=0;" vertex="1" parent="159">
                    <mxGeometry x="141.86276886395603" y="3.488147805230369" width="9.33522594332327" height="9.33522594332327" as="geometry"/>
                </mxCell>
                <mxCell id="172" value="&lt;font style=&quot;font-size: 15px;&quot;&gt;&lt;b&gt;...&lt;/b&gt;&lt;/font&gt;" style="text;strokeColor=none;fillColor=none;html=1;fontSize=10;fontStyle=0;verticalAlign=middle;align=center;rotation=0;container=0;" vertex="1" parent="159">
                    <mxGeometry x="107.27820348535488" width="41.99381254783835" height="10.17058077195781" as="geometry"/>
                </mxCell>
                <mxCell id="173" value="" style="ellipse;whiteSpace=wrap;html=1;aspect=fixed;fillColor=#008a00;fontColor=#ffffff;strokeColor=#005700;container=0;" vertex="1" parent="159">
                    <mxGeometry x="135.72341201557924" y="22.713026093687176" width="9.33522594332327" height="9.33522594332327" as="geometry"/>
                </mxCell>
                <mxCell id="174" value="&lt;font style=&quot;font-size: 15px;&quot;&gt;&lt;b&gt;...&lt;/b&gt;&lt;/font&gt;" style="text;strokeColor=none;fillColor=none;html=1;fontSize=10;fontStyle=0;verticalAlign=middle;align=center;rotation=0;container=0;" vertex="1" parent="159">
                    <mxGeometry x="100.11756033373149" y="19.22487828845692" width="41.99381254783835" height="10.17058077195781" as="geometry"/>
                </mxCell>
                <mxCell id="175" value="&lt;font style=&quot;font-size: 15px;&quot;&gt;&lt;b&gt;...&lt;/b&gt;&lt;/font&gt;" style="text;strokeColor=none;fillColor=none;html=1;fontSize=10;fontStyle=0;verticalAlign=middle;align=center;rotation=105;container=0;" vertex="1" parent="159">
                    <mxGeometry x="119.40000000000009" y="34.42999999999995" width="41.99" height="12.87" as="geometry"/>
                </mxCell>
                <mxCell id="176" value="" style="ellipse;whiteSpace=wrap;html=1;aspect=fixed;fillColor=#008a00;fontColor=#ffffff;strokeColor=#005700;container=0;" vertex="1" parent="159">
                    <mxGeometry x="26.090000000000146" y="3.488147805230369" width="9.33522594332327" height="9.33522594332327" as="geometry"/>
                </mxCell>
                <mxCell id="177" value="" style="ellipse;whiteSpace=wrap;html=1;aspect=fixed;fillColor=#008a00;fontColor=#ffffff;strokeColor=#005700;container=0;" vertex="1" parent="159">
                    <mxGeometry x="70.51595419123396" y="3.488147805230369" width="9.33522594332327" height="9.33522594332327" as="geometry"/>
                </mxCell>
                <mxCell id="178" value="" style="ellipse;whiteSpace=wrap;html=1;aspect=fixed;fillColor=#008a00;fontColor=#ffffff;strokeColor=#005700;container=0;" vertex="1" parent="159">
                    <mxGeometry x="48.55829867142893" y="3.488147805230369" width="9.33522594332327" height="9.33522594332327" as="geometry"/>
                </mxCell>
                <mxCell id="179" value="" style="ellipse;whiteSpace=wrap;html=1;aspect=fixed;fillColor=#008a00;fontColor=#ffffff;strokeColor=#005700;container=0;" vertex="1" parent="159">
                    <mxGeometry x="105.75033165324726" y="3.488147805230369" width="9.33522594332327" height="9.33522594332327" as="geometry"/>
                </mxCell>
                <mxCell id="180" value="" style="ellipse;whiteSpace=wrap;html=1;aspect=fixed;fillColor=#008a00;fontColor=#ffffff;strokeColor=#005700;container=0;" vertex="1" parent="159">
                    <mxGeometry x="10.611286303246743" y="49.44407526964096" width="9.33522594332327" height="9.33522594332327" as="geometry"/>
                </mxCell>
                <mxCell id="181" value="" style="ellipse;whiteSpace=wrap;html=1;aspect=fixed;fillColor=#008a00;fontColor=#ffffff;strokeColor=#005700;container=0;" vertex="1" parent="159">
                    <mxGeometry x="55.037240494480784" y="49.44407526964096" width="9.33522594332327" height="9.33522594332327" as="geometry"/>
                </mxCell>
                <mxCell id="182" value="" style="ellipse;whiteSpace=wrap;html=1;aspect=fixed;fillColor=#008a00;fontColor=#ffffff;strokeColor=#005700;container=0;" vertex="1" parent="159">
                    <mxGeometry x="33.07958497467553" y="49.44407526964096" width="9.33522594332327" height="9.33522594332327" as="geometry"/>
                </mxCell>
                <mxCell id="183" value="" style="ellipse;whiteSpace=wrap;html=1;aspect=fixed;fillColor=#008a00;fontColor=#ffffff;strokeColor=#005700;container=0;" vertex="1" parent="159">
                    <mxGeometry x="90.27161795649431" y="49.44407526964096" width="9.33522594332327" height="9.33522594332327" as="geometry"/>
                </mxCell>
                <mxCell id="184" value="&lt;font style=&quot;font-size: 15px;&quot;&gt;&lt;b&gt;...&lt;/b&gt;&lt;/font&gt;" style="text;strokeColor=none;fillColor=none;html=1;fontSize=10;fontStyle=0;verticalAlign=middle;align=center;rotation=0;container=0;" vertex="1" parent="159">
                    <mxGeometry x="55.68705257789293" y="45.955927464410706" width="41.99381254783835" height="10.17058077195781" as="geometry"/>
                </mxCell>
                <mxCell id="185" value="" style="ellipse;whiteSpace=wrap;html=1;aspect=fixed;fillColor=#008a00;fontColor=#ffffff;strokeColor=#005700;container=0;" vertex="1" parent="159">
                    <mxGeometry x="126.38405516720286" y="49.44407526964096" width="9.33522594332327" height="9.33522594332327" as="geometry"/>
                </mxCell>
                <mxCell id="186" value="&lt;font style=&quot;font-size: 15px;&quot;&gt;&lt;b&gt;...&lt;/b&gt;&lt;/font&gt;" style="text;strokeColor=none;fillColor=none;html=1;fontSize=10;fontStyle=0;verticalAlign=middle;align=center;rotation=0;container=0;" vertex="1" parent="159">
                    <mxGeometry x="91.79948978860193" y="45.955927464410706" width="41.99381254783835" height="10.17058077195781" as="geometry"/>
                </mxCell>
            </root>
        </mxGraphModel>
    </diagram>
</mxfile>